<mxfile host="app.diagrams.net" modified="2023-07-17T19:13:01.298Z" agent="Mozilla/5.0 (Windows NT 10.0; Win64; x64) AppleWebKit/537.36 (KHTML, like Gecko) Chrome/114.0.0.0 Safari/537.36 Edg/114.0.1823.82" etag="jwMB1J6kn5N6bvjQ2TRX" version="21.6.2" type="device">
  <diagram name="Página-1" id="oHr-k1CfpwlpXezhVpom">
    <mxGraphModel dx="1379" dy="884" grid="1" gridSize="10" guides="1" tooltips="1" connect="1" arrows="1" fold="1" page="1" pageScale="1" pageWidth="827" pageHeight="1169" math="0" shadow="0">
      <root>
        <mxCell id="0" />
        <mxCell id="1" parent="0" />
        <mxCell id="XUTloIaOMXkrUZ5MmOGf-3" style="edgeStyle=orthogonalEdgeStyle;rounded=0;orthogonalLoop=1;jettySize=auto;html=1;exitX=1;exitY=0.5;exitDx=0;exitDy=0;" parent="1" source="XUTloIaOMXkrUZ5MmOGf-1" target="XUTloIaOMXkrUZ5MmOGf-2" edge="1">
          <mxGeometry relative="1" as="geometry" />
        </mxCell>
        <mxCell id="XUTloIaOMXkrUZ5MmOGf-8" style="edgeStyle=orthogonalEdgeStyle;rounded=0;orthogonalLoop=1;jettySize=auto;html=1;exitX=0.5;exitY=1;exitDx=0;exitDy=0;entryX=0;entryY=0.5;entryDx=0;entryDy=0;" parent="1" source="XUTloIaOMXkrUZ5MmOGf-1" target="XUTloIaOMXkrUZ5MmOGf-6" edge="1">
          <mxGeometry relative="1" as="geometry" />
        </mxCell>
        <mxCell id="XUTloIaOMXkrUZ5MmOGf-1" value="Modelo" style="rounded=0;whiteSpace=wrap;html=1;" parent="1" vertex="1">
          <mxGeometry x="160" y="360" width="120" height="40" as="geometry" />
        </mxCell>
        <mxCell id="XUTloIaOMXkrUZ5MmOGf-10" style="edgeStyle=orthogonalEdgeStyle;rounded=0;orthogonalLoop=1;jettySize=auto;html=1;exitX=0.5;exitY=1;exitDx=0;exitDy=0;entryX=0;entryY=0.5;entryDx=0;entryDy=0;" parent="1" source="XUTloIaOMXkrUZ5MmOGf-2" target="XUTloIaOMXkrUZ5MmOGf-9" edge="1">
          <mxGeometry relative="1" as="geometry" />
        </mxCell>
        <mxCell id="XUTloIaOMXkrUZ5MmOGf-2" value="ModeloExtracao" style="rounded=0;whiteSpace=wrap;html=1;" parent="1" vertex="1">
          <mxGeometry x="360" y="360" width="120" height="40" as="geometry" />
        </mxCell>
        <mxCell id="XUTloIaOMXkrUZ5MmOGf-4" value="id&lt;br&gt;nome&lt;br&gt;descrição" style="text;html=1;align=left;verticalAlign=middle;resizable=0;points=[];autosize=1;strokeColor=none;fillColor=none;" parent="1" vertex="1">
          <mxGeometry x="160" y="300" width="70" height="60" as="geometry" />
        </mxCell>
        <mxCell id="XUTloIaOMXkrUZ5MmOGf-5" value="id&lt;br&gt;id_pai&lt;br&gt;tipo_origem_extracao&lt;br&gt;nome" style="text;html=1;align=left;verticalAlign=middle;resizable=0;points=[];autosize=1;strokeColor=none;fillColor=none;" parent="1" vertex="1">
          <mxGeometry x="360" y="295" width="140" height="70" as="geometry" />
        </mxCell>
        <mxCell id="XUTloIaOMXkrUZ5MmOGf-18" style="edgeStyle=orthogonalEdgeStyle;rounded=0;orthogonalLoop=1;jettySize=auto;html=1;exitX=0.5;exitY=1;exitDx=0;exitDy=0;" parent="1" source="XUTloIaOMXkrUZ5MmOGf-6" target="XUTloIaOMXkrUZ5MmOGf-11" edge="1">
          <mxGeometry relative="1" as="geometry" />
        </mxCell>
        <mxCell id="XUTloIaOMXkrUZ5MmOGf-6" value="ColecaoModeloExtracao" style="rounded=0;whiteSpace=wrap;html=1;" parent="1" vertex="1">
          <mxGeometry x="360" y="650" width="160" height="40" as="geometry" />
        </mxCell>
        <mxCell id="XUTloIaOMXkrUZ5MmOGf-9" value="ModeloCampo" style="rounded=0;whiteSpace=wrap;html=1;" parent="1" vertex="1">
          <mxGeometry x="520" y="440" width="120" height="40" as="geometry" />
        </mxCell>
        <mxCell id="XUTloIaOMXkrUZ5MmOGf-11" value="ModeloExtracao" style="rounded=0;whiteSpace=wrap;html=1;" parent="1" vertex="1">
          <mxGeometry x="440" y="760" width="120" height="40" as="geometry" />
        </mxCell>
        <mxCell id="XUTloIaOMXkrUZ5MmOGf-12" value="ModeloExtracao" style="rounded=0;whiteSpace=wrap;html=1;" parent="1" vertex="1">
          <mxGeometry x="440" y="800" width="120" height="40" as="geometry" />
        </mxCell>
        <mxCell id="XUTloIaOMXkrUZ5MmOGf-13" value="ModeloExtracao" style="rounded=0;whiteSpace=wrap;html=1;" parent="1" vertex="1">
          <mxGeometry x="440" y="840" width="120" height="40" as="geometry" />
        </mxCell>
        <mxCell id="XUTloIaOMXkrUZ5MmOGf-15" value="ModeloCampo" style="rounded=0;whiteSpace=wrap;html=1;" parent="1" vertex="1">
          <mxGeometry x="520" y="480" width="120" height="40" as="geometry" />
        </mxCell>
        <mxCell id="XUTloIaOMXkrUZ5MmOGf-16" value="ModeloCampo" style="rounded=0;whiteSpace=wrap;html=1;" parent="1" vertex="1">
          <mxGeometry x="520" y="520" width="120" height="40" as="geometry" />
        </mxCell>
        <mxCell id="XUTloIaOMXkrUZ5MmOGf-20" value="origem_extracao" style="rounded=0;whiteSpace=wrap;html=1;" parent="1" vertex="1">
          <mxGeometry x="520" y="200" width="120" height="40" as="geometry" />
        </mxCell>
        <mxCell id="XUTloIaOMXkrUZ5MmOGf-21" value="origem_extracao" style="rounded=0;whiteSpace=wrap;html=1;" parent="1" vertex="1">
          <mxGeometry x="520" y="255" width="120" height="40" as="geometry" />
        </mxCell>
        <mxCell id="XUTloIaOMXkrUZ5MmOGf-22" value="Modelo" style="swimlane;fontStyle=0;childLayout=stackLayout;horizontal=1;startSize=30;horizontalStack=0;resizeParent=1;resizeParentMax=0;resizeLast=0;collapsible=1;marginBottom=0;whiteSpace=wrap;html=1;" parent="1" vertex="1">
          <mxGeometry x="160" y="900" width="140" height="180" as="geometry" />
        </mxCell>
        <mxCell id="XUTloIaOMXkrUZ5MmOGf-23" value="id" style="text;strokeColor=none;fillColor=none;align=left;verticalAlign=middle;spacingLeft=4;spacingRight=4;overflow=hidden;points=[[0,0.5],[1,0.5]];portConstraint=eastwest;rotatable=0;whiteSpace=wrap;html=1;" parent="XUTloIaOMXkrUZ5MmOGf-22" vertex="1">
          <mxGeometry y="30" width="140" height="30" as="geometry" />
        </mxCell>
        <mxCell id="XUTloIaOMXkrUZ5MmOGf-24" value="nome" style="text;strokeColor=none;fillColor=none;align=left;verticalAlign=middle;spacingLeft=4;spacingRight=4;overflow=hidden;points=[[0,0.5],[1,0.5]];portConstraint=eastwest;rotatable=0;whiteSpace=wrap;html=1;" parent="XUTloIaOMXkrUZ5MmOGf-22" vertex="1">
          <mxGeometry y="60" width="140" height="30" as="geometry" />
        </mxCell>
        <mxCell id="XUTloIaOMXkrUZ5MmOGf-25" value="descricao" style="text;strokeColor=none;fillColor=none;align=left;verticalAlign=middle;spacingLeft=4;spacingRight=4;overflow=hidden;points=[[0,0.5],[1,0.5]];portConstraint=eastwest;rotatable=0;whiteSpace=wrap;html=1;" parent="XUTloIaOMXkrUZ5MmOGf-22" vertex="1">
          <mxGeometry y="90" width="140" height="30" as="geometry" />
        </mxCell>
        <mxCell id="XUTloIaOMXkrUZ5MmOGf-30" value="ModeloExtracao" style="text;strokeColor=none;fillColor=none;align=left;verticalAlign=middle;spacingLeft=4;spacingRight=4;overflow=hidden;points=[[0,0.5],[1,0.5]];portConstraint=eastwest;rotatable=0;whiteSpace=wrap;html=1;" parent="XUTloIaOMXkrUZ5MmOGf-22" vertex="1">
          <mxGeometry y="120" width="140" height="30" as="geometry" />
        </mxCell>
        <mxCell id="XUTloIaOMXkrUZ5MmOGf-31" value="ColecaoModeloExtracao" style="text;strokeColor=none;fillColor=none;align=left;verticalAlign=middle;spacingLeft=4;spacingRight=4;overflow=hidden;points=[[0,0.5],[1,0.5]];portConstraint=eastwest;rotatable=0;whiteSpace=wrap;html=1;" parent="XUTloIaOMXkrUZ5MmOGf-22" vertex="1">
          <mxGeometry y="150" width="140" height="30" as="geometry" />
        </mxCell>
        <mxCell id="XUTloIaOMXkrUZ5MmOGf-26" value="ModeloExtracao" style="swimlane;fontStyle=0;childLayout=stackLayout;horizontal=1;startSize=30;horizontalStack=0;resizeParent=1;resizeParentMax=0;resizeLast=0;collapsible=1;marginBottom=0;whiteSpace=wrap;html=1;" parent="1" vertex="1">
          <mxGeometry x="440" y="990" width="140" height="150" as="geometry" />
        </mxCell>
        <mxCell id="XUTloIaOMXkrUZ5MmOGf-27" value="id" style="text;strokeColor=none;fillColor=none;align=left;verticalAlign=middle;spacingLeft=4;spacingRight=4;overflow=hidden;points=[[0,0.5],[1,0.5]];portConstraint=eastwest;rotatable=0;whiteSpace=wrap;html=1;" parent="XUTloIaOMXkrUZ5MmOGf-26" vertex="1">
          <mxGeometry y="30" width="140" height="30" as="geometry" />
        </mxCell>
        <mxCell id="XUTloIaOMXkrUZ5MmOGf-28" value="id_pai" style="text;strokeColor=none;fillColor=none;align=left;verticalAlign=middle;spacingLeft=4;spacingRight=4;overflow=hidden;points=[[0,0.5],[1,0.5]];portConstraint=eastwest;rotatable=0;whiteSpace=wrap;html=1;" parent="XUTloIaOMXkrUZ5MmOGf-26" vertex="1">
          <mxGeometry y="60" width="140" height="30" as="geometry" />
        </mxCell>
        <mxCell id="XUTloIaOMXkrUZ5MmOGf-29" value="origem" style="text;strokeColor=none;fillColor=none;align=left;verticalAlign=middle;spacingLeft=4;spacingRight=4;overflow=hidden;points=[[0,0.5],[1,0.5]];portConstraint=eastwest;rotatable=0;whiteSpace=wrap;html=1;" parent="XUTloIaOMXkrUZ5MmOGf-26" vertex="1">
          <mxGeometry y="90" width="140" height="30" as="geometry" />
        </mxCell>
        <mxCell id="XUTloIaOMXkrUZ5MmOGf-32" value="nome" style="text;strokeColor=none;fillColor=none;align=left;verticalAlign=middle;spacingLeft=4;spacingRight=4;overflow=hidden;points=[[0,0.5],[1,0.5]];portConstraint=eastwest;rotatable=0;whiteSpace=wrap;html=1;" parent="XUTloIaOMXkrUZ5MmOGf-26" vertex="1">
          <mxGeometry y="120" width="140" height="30" as="geometry" />
        </mxCell>
        <mxCell id="XUTloIaOMXkrUZ5MmOGf-33" value="ModeloExtracao" style="swimlane;fontStyle=0;childLayout=stackLayout;horizontal=1;startSize=30;horizontalStack=0;resizeParent=1;resizeParentMax=0;resizeLast=0;collapsible=1;marginBottom=0;whiteSpace=wrap;html=1;" parent="1" vertex="1">
          <mxGeometry x="110" y="1169" width="140" height="90" as="geometry" />
        </mxCell>
        <mxCell id="XUTloIaOMXkrUZ5MmOGf-34" value="id" style="text;strokeColor=none;fillColor=none;align=left;verticalAlign=middle;spacingLeft=4;spacingRight=4;overflow=hidden;points=[[0,0.5],[1,0.5]];portConstraint=eastwest;rotatable=0;whiteSpace=wrap;html=1;" parent="XUTloIaOMXkrUZ5MmOGf-33" vertex="1">
          <mxGeometry y="30" width="140" height="30" as="geometry" />
        </mxCell>
        <mxCell id="XUTloIaOMXkrUZ5MmOGf-35" value="nome" style="text;strokeColor=none;fillColor=none;align=left;verticalAlign=middle;spacingLeft=4;spacingRight=4;overflow=hidden;points=[[0,0.5],[1,0.5]];portConstraint=eastwest;rotatable=0;whiteSpace=wrap;html=1;" parent="XUTloIaOMXkrUZ5MmOGf-33" vertex="1">
          <mxGeometry y="60" width="140" height="30" as="geometry" />
        </mxCell>
        <mxCell id="XUTloIaOMXkrUZ5MmOGf-38" style="edgeStyle=orthogonalEdgeStyle;rounded=0;orthogonalLoop=1;jettySize=auto;html=1;exitX=1;exitY=0.5;exitDx=0;exitDy=0;entryX=0.007;entryY=0.28;entryDx=0;entryDy=0;entryPerimeter=0;" parent="1" source="XUTloIaOMXkrUZ5MmOGf-34" target="XUTloIaOMXkrUZ5MmOGf-29" edge="1">
          <mxGeometry relative="1" as="geometry" />
        </mxCell>
        <mxCell id="XUTloIaOMXkrUZ5MmOGf-39" style="edgeStyle=orthogonalEdgeStyle;rounded=0;orthogonalLoop=1;jettySize=auto;html=1;exitX=1;exitY=0.5;exitDx=0;exitDy=0;entryX=0;entryY=0.5;entryDx=0;entryDy=0;" parent="1" source="XUTloIaOMXkrUZ5MmOGf-30" target="XUTloIaOMXkrUZ5MmOGf-27" edge="1">
          <mxGeometry relative="1" as="geometry" />
        </mxCell>
        <mxCell id="XUTloIaOMXkrUZ5MmOGf-40" value="ModeloExtracao" style="swimlane;fontStyle=0;childLayout=stackLayout;horizontal=1;startSize=30;horizontalStack=0;resizeParent=1;resizeParentMax=0;resizeLast=0;collapsible=1;marginBottom=0;whiteSpace=wrap;html=1;" parent="1" vertex="1">
          <mxGeometry x="470" y="1210" width="140" height="150" as="geometry" />
        </mxCell>
        <mxCell id="XUTloIaOMXkrUZ5MmOGf-41" value="id" style="text;strokeColor=none;fillColor=none;align=left;verticalAlign=middle;spacingLeft=4;spacingRight=4;overflow=hidden;points=[[0,0.5],[1,0.5]];portConstraint=eastwest;rotatable=0;whiteSpace=wrap;html=1;" parent="XUTloIaOMXkrUZ5MmOGf-40" vertex="1">
          <mxGeometry y="30" width="140" height="30" as="geometry" />
        </mxCell>
        <mxCell id="XUTloIaOMXkrUZ5MmOGf-42" value="id_pai" style="text;strokeColor=none;fillColor=none;align=left;verticalAlign=middle;spacingLeft=4;spacingRight=4;overflow=hidden;points=[[0,0.5],[1,0.5]];portConstraint=eastwest;rotatable=0;whiteSpace=wrap;html=1;" parent="XUTloIaOMXkrUZ5MmOGf-40" vertex="1">
          <mxGeometry y="60" width="140" height="30" as="geometry" />
        </mxCell>
        <mxCell id="XUTloIaOMXkrUZ5MmOGf-43" value="origem" style="text;strokeColor=none;fillColor=none;align=left;verticalAlign=middle;spacingLeft=4;spacingRight=4;overflow=hidden;points=[[0,0.5],[1,0.5]];portConstraint=eastwest;rotatable=0;whiteSpace=wrap;html=1;" parent="XUTloIaOMXkrUZ5MmOGf-40" vertex="1">
          <mxGeometry y="90" width="140" height="30" as="geometry" />
        </mxCell>
        <mxCell id="XUTloIaOMXkrUZ5MmOGf-44" value="nome" style="text;strokeColor=none;fillColor=none;align=left;verticalAlign=middle;spacingLeft=4;spacingRight=4;overflow=hidden;points=[[0,0.5],[1,0.5]];portConstraint=eastwest;rotatable=0;whiteSpace=wrap;html=1;" parent="XUTloIaOMXkrUZ5MmOGf-40" vertex="1">
          <mxGeometry y="120" width="140" height="30" as="geometry" />
        </mxCell>
        <mxCell id="XUTloIaOMXkrUZ5MmOGf-45" style="edgeStyle=orthogonalEdgeStyle;rounded=0;orthogonalLoop=1;jettySize=auto;html=1;exitX=1;exitY=0.5;exitDx=0;exitDy=0;entryX=0;entryY=0.5;entryDx=0;entryDy=0;" parent="1" source="XUTloIaOMXkrUZ5MmOGf-31" target="XUTloIaOMXkrUZ5MmOGf-41" edge="1">
          <mxGeometry relative="1" as="geometry" />
        </mxCell>
        <mxCell id="Q75Nqqt7x2pQr40iiFSY-1" value="" style="rounded=0;whiteSpace=wrap;html=1;" vertex="1" parent="1">
          <mxGeometry x="827" y="210" width="553" height="600" as="geometry" />
        </mxCell>
        <mxCell id="Q75Nqqt7x2pQr40iiFSY-2" value="" style="rounded=0;whiteSpace=wrap;html=1;" vertex="1" parent="1">
          <mxGeometry x="1180" y="210" width="370" height="600" as="geometry" />
        </mxCell>
        <mxCell id="Q75Nqqt7x2pQr40iiFSY-3" value="Modelos" style="text;html=1;align=center;verticalAlign=middle;resizable=0;points=[];autosize=1;strokeColor=none;fillColor=none;fontSize=50;" vertex="1" parent="1">
          <mxGeometry x="840" y="225" width="210" height="70" as="geometry" />
        </mxCell>
        <mxCell id="Q75Nqqt7x2pQr40iiFSY-4" value="" style="rounded=0;whiteSpace=wrap;html=1;" vertex="1" parent="1">
          <mxGeometry x="840" y="300" width="330" height="60" as="geometry" />
        </mxCell>
        <mxCell id="Q75Nqqt7x2pQr40iiFSY-5" value="Modelo 1" style="text;html=1;align=left;verticalAlign=middle;resizable=0;points=[];autosize=1;strokeColor=none;fillColor=none;fontSize=20;" vertex="1" parent="1">
          <mxGeometry x="850" y="310" width="110" height="40" as="geometry" />
        </mxCell>
        <mxCell id="Q75Nqqt7x2pQr40iiFSY-6" value="Ver" style="rounded=1;whiteSpace=wrap;html=1;" vertex="1" parent="1">
          <mxGeometry x="1100" y="315" width="60" height="30" as="geometry" />
        </mxCell>
        <mxCell id="Q75Nqqt7x2pQr40iiFSY-7" value="Modelo 1" style="text;html=1;align=left;verticalAlign=middle;resizable=0;points=[];autosize=1;strokeColor=none;fillColor=none;fontSize=40;" vertex="1" parent="1">
          <mxGeometry x="1190" y="220" width="190" height="60" as="geometry" />
        </mxCell>
        <mxCell id="Q75Nqqt7x2pQr40iiFSY-8" value="" style="rounded=0;whiteSpace=wrap;html=1;" vertex="1" parent="1">
          <mxGeometry x="827" y="150" width="723" height="60" as="geometry" />
        </mxCell>
        <mxCell id="Q75Nqqt7x2pQr40iiFSY-9" value="X" style="rounded=1;whiteSpace=wrap;html=1;" vertex="1" parent="1">
          <mxGeometry x="1510" y="220" width="30" height="20" as="geometry" />
        </mxCell>
        <mxCell id="Q75Nqqt7x2pQr40iiFSY-10" value="" style="rounded=0;whiteSpace=wrap;html=1;" vertex="1" parent="1">
          <mxGeometry x="840" y="370" width="330" height="60" as="geometry" />
        </mxCell>
        <mxCell id="Q75Nqqt7x2pQr40iiFSY-11" value="Modelo 1" style="text;html=1;align=left;verticalAlign=middle;resizable=0;points=[];autosize=1;strokeColor=none;fillColor=none;fontSize=20;" vertex="1" parent="1">
          <mxGeometry x="850" y="380" width="110" height="40" as="geometry" />
        </mxCell>
        <mxCell id="Q75Nqqt7x2pQr40iiFSY-12" value="Ver" style="rounded=1;whiteSpace=wrap;html=1;" vertex="1" parent="1">
          <mxGeometry x="1100" y="385" width="60" height="30" as="geometry" />
        </mxCell>
        <mxCell id="Q75Nqqt7x2pQr40iiFSY-13" value="" style="rounded=0;whiteSpace=wrap;html=1;" vertex="1" parent="1">
          <mxGeometry x="840" y="440" width="330" height="60" as="geometry" />
        </mxCell>
        <mxCell id="Q75Nqqt7x2pQr40iiFSY-14" value="Modelo 1" style="text;html=1;align=left;verticalAlign=middle;resizable=0;points=[];autosize=1;strokeColor=none;fillColor=none;fontSize=20;" vertex="1" parent="1">
          <mxGeometry x="850" y="450" width="110" height="40" as="geometry" />
        </mxCell>
        <mxCell id="Q75Nqqt7x2pQr40iiFSY-15" value="Ver" style="rounded=1;whiteSpace=wrap;html=1;" vertex="1" parent="1">
          <mxGeometry x="1100" y="455" width="60" height="30" as="geometry" />
        </mxCell>
        <mxCell id="Q75Nqqt7x2pQr40iiFSY-16" value="" style="rounded=0;whiteSpace=wrap;html=1;" vertex="1" parent="1">
          <mxGeometry x="840" y="510" width="330" height="60" as="geometry" />
        </mxCell>
        <mxCell id="Q75Nqqt7x2pQr40iiFSY-17" value="Modelo 1" style="text;html=1;align=left;verticalAlign=middle;resizable=0;points=[];autosize=1;strokeColor=none;fillColor=none;fontSize=20;" vertex="1" parent="1">
          <mxGeometry x="850" y="520" width="110" height="40" as="geometry" />
        </mxCell>
        <mxCell id="Q75Nqqt7x2pQr40iiFSY-18" value="Ver" style="rounded=1;whiteSpace=wrap;html=1;" vertex="1" parent="1">
          <mxGeometry x="1100" y="525" width="60" height="30" as="geometry" />
        </mxCell>
        <mxCell id="Q75Nqqt7x2pQr40iiFSY-19" value="" style="rounded=0;whiteSpace=wrap;html=1;" vertex="1" parent="1">
          <mxGeometry x="840" y="580" width="330" height="60" as="geometry" />
        </mxCell>
        <mxCell id="Q75Nqqt7x2pQr40iiFSY-20" value="Modelo 1" style="text;html=1;align=left;verticalAlign=middle;resizable=0;points=[];autosize=1;strokeColor=none;fillColor=none;fontSize=20;" vertex="1" parent="1">
          <mxGeometry x="850" y="590" width="110" height="40" as="geometry" />
        </mxCell>
        <mxCell id="Q75Nqqt7x2pQr40iiFSY-21" value="Ver" style="rounded=1;whiteSpace=wrap;html=1;" vertex="1" parent="1">
          <mxGeometry x="1100" y="595" width="60" height="30" as="geometry" />
        </mxCell>
        <mxCell id="Q75Nqqt7x2pQr40iiFSY-22" value="EDITAR" style="rounded=1;whiteSpace=wrap;html=1;" vertex="1" parent="1">
          <mxGeometry x="1470" y="770" width="60" height="30" as="geometry" />
        </mxCell>
        <mxCell id="Q75Nqqt7x2pQr40iiFSY-23" value="REMOVER" style="rounded=1;whiteSpace=wrap;html=1;" vertex="1" parent="1">
          <mxGeometry x="1200" y="770" width="80" height="30" as="geometry" />
        </mxCell>
        <mxCell id="Q75Nqqt7x2pQr40iiFSY-25" value="MODELOS" style="rounded=0;whiteSpace=wrap;html=1;fontSize=20;" vertex="1" parent="1">
          <mxGeometry x="827" y="150" width="120" height="60" as="geometry" />
        </mxCell>
        <mxCell id="Q75Nqqt7x2pQr40iiFSY-26" value="CONFIGURAÇÕES" style="rounded=0;whiteSpace=wrap;html=1;fontSize=20;" vertex="1" parent="1">
          <mxGeometry x="1350" y="150" width="200" height="60" as="geometry" />
        </mxCell>
        <mxCell id="Q75Nqqt7x2pQr40iiFSY-27" value="ANÁLISES" style="rounded=0;whiteSpace=wrap;html=1;fontSize=20;" vertex="1" parent="1">
          <mxGeometry x="947" y="150" width="120" height="60" as="geometry" />
        </mxCell>
        <mxCell id="Q75Nqqt7x2pQr40iiFSY-28" value="Produto" style="rounded=0;whiteSpace=wrap;html=1;" vertex="1" parent="1">
          <mxGeometry x="1190" y="305" width="120" height="40" as="geometry" />
        </mxCell>
        <mxCell id="Q75Nqqt7x2pQr40iiFSY-30" value="Modelo de Extração" style="rounded=0;whiteSpace=wrap;html=1;" vertex="1" parent="1">
          <mxGeometry x="1200" y="290" width="120" height="20" as="geometry" />
        </mxCell>
        <mxCell id="Q75Nqqt7x2pQr40iiFSY-31" value="Título" style="rounded=0;whiteSpace=wrap;html=1;" vertex="1" parent="1">
          <mxGeometry x="1250" y="367.5" width="120" height="40" as="geometry" />
        </mxCell>
        <mxCell id="Q75Nqqt7x2pQr40iiFSY-32" value="Modelo Campo" style="rounded=0;whiteSpace=wrap;html=1;" vertex="1" parent="1">
          <mxGeometry x="1260" y="352.5" width="120" height="20" as="geometry" />
        </mxCell>
        <mxCell id="Q75Nqqt7x2pQr40iiFSY-33" value="Descrição" style="rounded=0;whiteSpace=wrap;html=1;" vertex="1" parent="1">
          <mxGeometry x="1250" y="430" width="120" height="40" as="geometry" />
        </mxCell>
        <mxCell id="Q75Nqqt7x2pQr40iiFSY-34" value="Modelo Campo" style="rounded=0;whiteSpace=wrap;html=1;" vertex="1" parent="1">
          <mxGeometry x="1260" y="415" width="120" height="20" as="geometry" />
        </mxCell>
        <mxCell id="Q75Nqqt7x2pQr40iiFSY-35" value="Imagem" style="rounded=0;whiteSpace=wrap;html=1;" vertex="1" parent="1">
          <mxGeometry x="1250" y="495" width="120" height="40" as="geometry" />
        </mxCell>
        <mxCell id="Q75Nqqt7x2pQr40iiFSY-36" value="Modelo Campo" style="rounded=0;whiteSpace=wrap;html=1;" vertex="1" parent="1">
          <mxGeometry x="1260" y="480" width="120" height="20" as="geometry" />
        </mxCell>
      </root>
    </mxGraphModel>
  </diagram>
</mxfile>
